<svg width="55" height="43" viewBox="0 0 55 43" fill="none" xmlns="http://www.w3.org/2000/svg">
<g clip-path="url(#clip0_1_109)">
<path fill-rule="evenodd" clip-rule="evenodd" d="M52.3327 30.7539C52.0228 31.9208 50.1152 37.1735 49.4474 39.262C48.8235 41.2127 49.0715 34.8059 48.4476 36.7567C48.3487 37.0661 47.0084 37.3845 46.7523 37.5826C46.4709 37.8003 46.0202 38.3058 45.6652 38.3044C42.6722 38.2893 45.0067 37.5981 42.0133 37.5826C40.499 37.5745 40.1204 38.1639 38.6057 38.1561C37.8486 38.1526 36.9019 38.308 36.1448 38.3044C35.4827 38.3013 30.5123 37.4138 29.8846 37.2461C30.1843 35.5831 32.4915 39.928 32.9656 38.3044C33.4543 36.6327 30.4057 38.9732 30.8941 37.3014C31.8807 33.9234 32.8674 30.5453 33.8543 27.1673C39.412 27.1673 44.9697 27.1663 50.5273 27.1659C51.1174 27.1659 51.8535 27.2727 52.2949 27.6665C52.9241 28.2285 52.7279 29.1452 52.5313 29.9679C52.4686 30.2304 52.4019 30.4928 52.3327 30.7539Z" fill="#C0131B"/>
<path fill-rule="evenodd" clip-rule="evenodd" d="M4.29047 30.7539C4.60063 31.9215 6.50759 37.1739 7.17599 39.2621C7.7998 41.2127 7.55176 34.806 8.17561 36.7567C8.27455 37.0664 9.61484 37.3845 9.87097 37.5833C10.152 37.801 10.6025 38.3066 10.9576 38.3044C13.9505 38.2893 11.6165 37.5984 14.6094 37.5833C16.1241 37.5755 16.5027 38.1642 18.0174 38.1561C18.7745 38.153 19.7212 38.308 20.4784 38.3044C21.1404 38.3013 26.1108 37.4138 26.7385 37.2461C26.4389 35.5831 24.1312 39.928 23.6575 38.3044C23.1691 36.6334 26.2175 38.9732 25.7291 37.3014C24.7424 33.9241 23.7558 30.546 22.7692 27.168C17.2111 27.1673 11.6534 27.1663 6.09569 27.1663C5.50552 27.1663 4.7694 27.273 4.32836 27.6665C3.69891 28.2282 3.89539 29.1452 4.09188 29.9675C4.15468 30.2311 4.22135 30.4928 4.29047 30.7539Z" fill="#C0131B"/>
<path fill-rule="evenodd" clip-rule="evenodd" d="M46.8866 23.8816C46.8866 34.3021 38.4739 42.75 28.0964 42.75C17.7192 42.75 9.30646 34.3021 9.30646 23.8816C9.30646 13.461 17.7192 5.01385 28.0964 5.01385C38.4739 5.01385 46.8866 13.461 46.8866 23.8816Z" fill="#FCD842"/>
<path fill-rule="evenodd" clip-rule="evenodd" d="M41.7186 10.9092C38.3823 7.86164 33.953 6.00564 29.0935 6.00564C18.7117 6.00564 10.2945 14.4578 10.2945 24.8829C10.2945 29.7621 12.1428 34.2095 15.1771 37.5603C11.5614 34.1397 9.30609 29.2717 9.30609 23.8788C9.30609 13.4649 17.723 5.01386 28.0932 5.01386C33.4642 5.01349 38.3125 7.27819 41.7186 10.9092Z" fill="#FDE869"/>
<path fill-rule="evenodd" clip-rule="evenodd" d="M42.2939 23.8816C42.2939 31.7552 35.9373 38.1385 28.0959 38.1385C20.2547 38.1385 13.8981 31.7552 13.8981 23.8816C13.8981 16.008 20.2547 9.62503 28.0959 9.62503C35.9373 9.62535 42.2939 16.008 42.2939 23.8816Z" fill="#F7B500"/>
<path fill-rule="evenodd" clip-rule="evenodd" d="M38.6029 14.2939C36.0798 12.0408 32.7669 10.652 29.1158 10.652C21.2691 10.652 14.9212 17.0258 14.9212 24.9054C14.9212 28.5716 16.3047 31.8986 18.5485 34.4317C15.6885 31.8285 13.8981 28.0692 13.8981 23.8788C13.8981 16.0104 20.2575 9.62503 28.093 9.62503C32.2669 9.62467 36.0103 11.4219 38.6029 14.2939Z" fill="#E28900"/>
<path fill-rule="evenodd" clip-rule="evenodd" d="M29.5728 17.5282C30.132 17.6653 30.6376 17.8615 31.0906 18.117C31.5439 18.3731 31.9316 18.6595 32.2544 18.9773C32.5772 19.2947 32.8319 19.6287 33.0182 19.9772C33.2049 20.3263 33.3031 20.6631 33.3151 20.9876C33.3151 21.0997 33.2758 21.1959 33.194 21.2769C33.1137 21.3583 33.0242 21.3988 32.9242 21.3988H30.485C30.3124 21.3988 30.1713 21.3741 30.0664 21.3241C29.9601 21.2748 29.8527 21.199 29.7405 21.0997C29.7029 21.0623 29.644 21 29.5636 20.9126C29.4833 20.8259 29.3685 20.735 29.2198 20.6413C29.071 20.5476 28.8844 20.4672 28.6605 20.3979C28.4373 20.3299 28.1651 20.2953 27.8423 20.2953C27.6055 20.2953 27.3784 20.3112 27.1616 20.3422C26.9448 20.3735 26.7525 20.4232 26.5844 20.4916C26.4178 20.5606 26.2799 20.6572 26.1753 20.7815C26.069 20.9062 26.016 21.0623 26.016 21.249C26.016 21.4358 26.0753 21.5918 26.1932 21.7169C26.3111 21.8417 26.51 21.9572 26.7886 22.0629C27.0686 22.1686 27.4374 22.2711 27.8963 22.3708C28.3556 22.4702 28.9272 22.5889 29.61 22.7263C30.292 22.8641 30.8892 23.0381 31.3979 23.2499C31.9056 23.4616 32.3313 23.7266 32.6727 24.0447C33.0147 24.3621 33.2698 24.7363 33.4361 25.1661C33.6045 25.5963 33.6877 26.104 33.6877 26.6899C33.6877 27.2134 33.5873 27.6933 33.3895 28.1298C33.1912 28.5664 32.9123 28.9525 32.5516 29.2889C32.1923 29.6261 31.7576 29.9062 31.2481 30.1303C30.739 30.3547 30.1815 30.5164 29.5724 30.6165V31.9437C29.5724 32.0807 29.5236 32.1991 29.424 32.2988C29.3233 32.3985 29.2071 32.4485 29.0706 32.4485H26.6311C26.4946 32.4485 26.3767 32.3985 26.2767 32.2988C26.1781 32.1991 26.1283 32.0807 26.1283 31.9437V30.5601C25.5322 30.4231 24.9947 30.2268 24.5171 29.9714C24.0399 29.7167 23.6298 29.4267 23.2884 29.1015C22.9477 28.7788 22.6839 28.4265 22.4972 28.046C22.3105 27.6655 22.2109 27.2825 22.199 26.8964C22.199 26.784 22.2397 26.6871 22.3203 26.6068C22.4003 26.5254 22.4912 26.4852 22.5898 26.4852H25.0294C25.2034 26.4852 25.3399 26.5067 25.4385 26.55C25.5389 26.5937 25.6371 26.6593 25.7371 26.7466C25.7869 26.797 25.8613 26.8777 25.9599 26.9894C26.0599 27.1018 26.1932 27.217 26.3613 27.3354C26.5283 27.4545 26.7388 27.5566 26.9932 27.6447C27.2476 27.7314 27.5612 27.7751 27.9342 27.7751C28.5921 27.7751 29.1415 27.7042 29.5829 27.5601C30.0222 27.4171 30.2436 27.1585 30.2436 26.7843C30.2436 26.5972 30.1618 26.4415 30.0012 26.3168C29.8391 26.1924 29.5984 26.0765 29.2756 25.9708C28.9528 25.8651 28.5391 25.7622 28.0374 25.6622C27.5342 25.5628 26.9416 25.4381 26.2585 25.2884C24.9792 25.0139 24.0459 24.5559 23.4565 23.9144C22.8674 23.2717 22.5716 22.4156 22.5716 21.3431C22.5716 20.907 22.6523 20.4859 22.8144 20.0815C22.9751 19.6756 23.2084 19.3056 23.5129 18.9682C23.8157 18.632 24.1887 18.3393 24.6297 18.0895C25.0704 17.8407 25.5687 17.6473 26.1283 17.5103V16.1267C26.1283 15.99 26.1781 15.8713 26.2767 15.7712C26.3767 15.6712 26.4946 15.6215 26.6311 15.6215H29.0706C29.2071 15.6215 29.3236 15.6712 29.424 15.7712C29.5236 15.8709 29.5724 15.9896 29.5724 16.1267L29.5728 17.5282Z" fill="#E28900"/>
<path fill-rule="evenodd" clip-rule="evenodd" d="M29.1149 17.0688C29.6742 17.2059 30.1805 17.4021 30.6334 17.6582C31.086 17.9137 31.4741 18.2001 31.7969 18.5183C32.1197 18.8357 32.374 19.1697 32.5607 19.5181C32.7467 19.8673 32.8453 20.2041 32.8575 20.5285C32.8575 20.6406 32.8183 20.7372 32.7361 20.8178C32.6561 20.8992 32.5667 20.9394 32.4667 20.9394H30.0268C29.8541 20.9394 29.7134 20.915 29.6089 20.865C29.5029 20.8157 29.3952 20.74 29.2829 20.6406C29.245 20.6032 29.1857 20.5409 29.1057 20.4535C29.0254 20.3661 28.91 20.276 28.7615 20.1829C28.6135 20.0889 28.4268 20.0085 28.2026 19.9391C27.9798 19.8718 27.7072 19.8366 27.3844 19.8366C27.1479 19.8366 26.9206 19.8525 26.7041 19.8838C26.4872 19.9148 26.2949 19.9642 26.1269 20.0325C25.9599 20.1016 25.8223 20.1988 25.7174 20.3225C25.6115 20.4472 25.5585 20.6032 25.5585 20.7903C25.5585 20.9771 25.6178 21.1324 25.7357 21.2572C25.8536 21.3822 26.0525 21.4978 26.3311 21.6035C26.6118 21.7092 26.9799 21.8117 27.4388 21.9114C27.8981 22.0111 28.4693 22.1295 29.1528 22.2669C29.8348 22.4047 30.4317 22.5794 30.9408 22.7905C31.4485 23.0022 31.8744 23.2671 32.2148 23.5853C32.5579 23.9027 32.8123 24.2765 32.979 24.7067C33.1477 25.1369 33.2305 25.6449 33.2305 26.2305C33.2305 26.754 33.1309 27.2335 32.9319 27.6704C32.7334 28.1062 32.4548 28.4931 32.0941 28.8295C31.7348 29.166 31.3 29.4468 30.7906 29.6709C30.2811 29.8953 29.724 30.057 29.1145 30.1571V31.4843C29.1145 31.6213 29.0665 31.7404 28.9661 31.8398C28.8665 31.9395 28.7496 31.9902 28.6135 31.9902H26.1736C26.0374 31.9902 25.9192 31.9395 25.8188 31.8398C25.7206 31.7404 25.6704 31.6217 25.6704 31.4843V30.1007C25.0753 29.9637 24.5371 29.7674 24.06 29.512C23.5824 29.2573 23.1719 28.9673 22.8312 28.6428C22.4901 28.3194 22.2267 27.9671 22.04 27.5866C21.8537 27.206 21.7541 26.8231 21.7418 26.4369C21.7418 26.3245 21.7821 26.2277 21.8628 26.1466C21.9432 26.0656 22.0341 26.0254 22.1323 26.0254H24.5722C24.7466 26.0254 24.8824 26.0473 24.9813 26.0913C25.081 26.1343 25.1795 26.1995 25.2796 26.2872C25.3294 26.3372 25.4037 26.4183 25.502 26.53C25.6023 26.642 25.7353 26.7583 25.9037 26.8759C26.0704 26.995 26.2809 27.0972 26.5357 27.1853C26.79 27.2719 27.104 27.3163 27.4767 27.3163C28.1345 27.3163 28.684 27.2441 29.1254 27.1007C29.5647 26.9577 29.7861 26.6991 29.7861 26.3249C29.7861 26.1378 29.704 25.9828 29.5433 25.8574C29.3812 25.7326 29.1401 25.6171 28.8177 25.5114C28.4945 25.405 28.0812 25.3028 27.5798 25.2035C27.0763 25.1038 26.4841 24.9791 25.8009 24.8293C24.5217 24.5556 23.5887 24.0968 22.9989 23.4553C22.4095 22.813 22.1137 21.9565 22.1137 20.8837C22.1137 20.4479 22.1944 20.0272 22.3565 19.6224C22.5168 19.2172 22.7505 18.8466 23.0551 18.5091C23.3579 18.173 23.7308 17.8802 24.1715 17.6308C24.6126 17.382 25.1108 17.1886 25.6701 17.0512V15.6669C25.6701 15.5302 25.7203 15.4115 25.8185 15.3114C25.9188 15.2121 26.0367 15.1617 26.1732 15.1617H28.6131C28.7493 15.1617 28.8661 15.2121 28.9658 15.3114C29.0661 15.4111 29.1142 15.5299 29.1142 15.6669V17.0688H29.1149Z" fill="#FCD842"/>
<path fill-rule="evenodd" clip-rule="evenodd" d="M50.5313 27.1662C51.2043 27.1588 52.4083 27.3572 52.5751 28.182C52.6447 28.5269 52.262 29.4285 51.2891 29.4285C51.2227 29.4285 5.19387 29.4232 5.19387 29.4232L2.26659 39.3265C2.26659 39.3265 1.988 41.558 3.82444 41.558C13.582 41.558 45.0952 41.5588 45.0952 41.56H47.1467C48.4235 41.56 49.5427 40.7093 49.8884 39.4759C50.7725 36.3212 52.3191 30.7127 52.545 30.0077C53.0628 28.3916 53.0423 27.1603 50.5313 27.1662Z" fill="#E4081C"/>
<path fill-rule="evenodd" clip-rule="evenodd" d="M4.00059 28.1407C4.00059 28.1407 3.54166 29.3855 7.25872 29.4229C5.6065 35.5194 3.8999 41.5572 3.8999 41.5572H2.80344C1.50594 41.5572 0.567725 40.3116 0.921398 39.0577L4.00059 28.1407Z" fill="#E4081C"/>
<path fill-rule="evenodd" clip-rule="evenodd" d="M7.98295 36.9403C8.84854 36.9403 9.5464 36.7042 10.1169 36.0042L9.18398 35.1079C8.86225 35.4986 8.50646 35.6536 8.13769 35.6536C7.55384 35.6536 7.1714 35.283 7.1714 34.7305C7.1714 33.8885 7.69491 33.2956 8.43981 33.2956C8.86924 33.2956 9.17799 33.4981 9.37904 33.848L10.5197 32.9524C10.1776 32.3457 9.43939 32.0089 8.54015 32.0089C6.8023 32.0089 5.57462 33.1744 5.57462 34.832C5.57425 36.0845 6.52688 36.9403 7.98295 36.9403ZM13.8133 36.8325L13.6593 36.0105H11.8677L11.3979 36.8325H9.72747L12.7197 32.116H14.2764L15.3904 36.8325H13.8133ZM12.5186 34.8655H13.4379L13.2094 33.6588L12.5186 34.8655ZM17.5104 36.9403C18.9735 36.9403 19.8861 36.2328 19.8861 35.1819C19.8861 33.7268 17.6448 34.0569 17.6448 33.5379C17.6448 33.3762 17.8728 33.2209 18.336 33.2209C18.7921 33.2209 19.2482 33.3354 19.6243 33.5714L20.1948 32.4123C19.7584 32.1494 19.1345 32.0082 18.4367 32.0082C16.9543 32.0082 16.0613 32.7089 16.0613 33.7803C16.0613 35.2421 18.2956 34.9525 18.2956 35.451C18.2956 35.6198 18.0809 35.7276 17.6718 35.7276C17.1486 35.7276 16.6115 35.593 16.0883 35.2897L15.4774 36.4618C15.9273 36.7384 16.6718 36.9403 17.5104 36.9403ZM24.0393 32.116H25.6227L24.6835 36.8325H23.1L23.4488 35.0941H21.986L21.6373 36.8325H20.0535L20.9931 32.116H22.5765L22.2411 33.787H23.7038L24.0393 32.116ZM31.7352 34.4071C32.2516 34.1848 32.5737 33.7874 32.5737 33.2409C32.5737 32.5271 32.0032 32.116 30.8896 32.116H28.4002L27.4609 36.8325H30.1717C31.3724 36.8325 32.3657 36.3741 32.3657 35.3302C32.3657 34.8989 32.138 34.5819 31.7352 34.4071ZM30.5071 33.2279C30.7689 33.2279 30.9233 33.322 30.9233 33.5175C30.9233 33.7733 30.7622 33.9287 30.4001 33.9287H29.5949L29.7356 33.2279H30.5071ZM30.2591 35.7205H29.2391L29.3868 34.9793H30.4064C30.6145 34.9793 30.7955 35.0804 30.7955 35.2893C30.7955 35.5793 30.5678 35.7205 30.2591 35.7205ZM36.2238 36.8325L36.0694 36.0105H34.2782L33.8084 36.8325H32.1376L35.1301 32.116H36.6869L37.8009 36.8325H36.2238ZM34.9287 34.8655H35.848L35.6199 33.6588L34.9287 34.8655ZM40.6587 36.9403C41.5248 36.9403 42.2223 36.7042 42.7928 36.0042L41.8601 35.1079C41.5381 35.4986 41.1827 35.6536 40.8134 35.6536C40.2296 35.6536 39.8472 35.283 39.8472 34.7305C39.8472 33.8885 40.3707 33.2956 41.1152 33.2956C41.5441 33.2956 41.8533 33.4981 42.0543 33.848L43.1948 32.9524C42.8527 32.3457 42.1146 32.0089 41.2157 32.0089C39.4777 32.0089 38.2497 33.1744 38.2497 34.832C38.2504 36.0845 39.203 36.9403 40.6587 36.9403ZM48.7443 32.116L46.3893 34.2655L47.9193 36.8325H46.1549L45.2017 35.2964L44.7591 35.7075L44.5376 36.8325H42.9809L43.9205 32.116H45.4771L45.1414 33.787L46.9264 32.116H48.7443Z" fill="white"/>
<path fill-rule="evenodd" clip-rule="evenodd" d="M50.6217 26.2812H44.0427C43.5997 26.2812 43.2837 25.7531 43.4167 25.2342C43.5032 24.8987 43.7564 24.6704 44.0427 24.6704H50.6217C51.0655 24.6704 51.3811 25.1989 51.2477 25.7175C51.162 26.0533 50.9084 26.2812 50.6217 26.2812Z" fill="#E4081C"/>
<path fill-rule="evenodd" clip-rule="evenodd" d="M54.2222 25.5075C54.2222 25.9585 53.858 26.3239 53.4097 26.3239C52.9607 26.3239 52.5969 25.9585 52.5969 25.5075C52.5969 25.0569 52.9607 24.6916 53.4097 24.6916C53.858 24.6919 54.2222 25.0573 54.2222 25.5075Z" fill="#E4081C"/>
<path fill-rule="evenodd" clip-rule="evenodd" d="M48.3246 10.2944L48.3604 10.287C47.1105 10.0196 46.1493 9.01162 45.9382 7.74574L45.8413 7.16864L45.7517 7.70594C45.5394 8.97286 44.5774 9.98048 43.3259 10.2475L43.2897 10.2553C44.5404 10.5224 45.5008 11.5296 45.7127 12.7955L45.8096 13.3733L45.8992 12.8357C46.1111 11.5691 47.0727 10.5615 48.3246 10.2944Z" fill="#F7B500"/>
<path fill-rule="evenodd" clip-rule="evenodd" d="M21.3182 3.06625L21.3428 3.06096C20.4926 2.87881 19.839 2.19355 19.6951 1.33249L19.6295 0.940002L19.5681 1.30536C19.4239 2.16678 18.7699 2.85239 17.9187 3.03383L17.8941 3.03912C18.7446 3.22091 19.3979 3.90653 19.5418 4.76689L19.6074 5.16008L19.6684 4.79437C19.813 3.9326 20.467 3.24734 21.3182 3.06625Z" fill="#F7B500"/>
</g>
<defs>
<clipPath id="clip0_1_109">
<rect width="53.4686" height="41.81" fill="white" transform="translate(0.765717 0.940002)"/>
</clipPath>
</defs>
</svg>
